<svg width="20" height="14" viewBox="0 0 20 14" fill="none" xmlns="http://www.w3.org/2000/svg">
<path fill-rule="evenodd" clip-rule="evenodd" d="M9.99996 1.37504C11.0108 1.37504 12.0125 1.41338 13.0041 1.48754C13.6537 1.53501 14.2645 1.81453 14.725 2.27504C15.1855 2.73555 15.465 3.34634 15.5125 3.99588C15.5491 4.48171 15.5766 4.97088 15.5958 5.46171L14.1916 4.05838C14.1344 3.99697 14.0654 3.94772 13.9887 3.91356C13.9121 3.8794 13.8293 3.86103 13.7454 3.85955C13.6615 3.85807 13.5781 3.87351 13.5003 3.90494C13.4225 3.93637 13.3518 3.98316 13.2924 4.04251C13.2331 4.10186 13.1863 4.17255 13.1549 4.25038C13.1234 4.3282 13.108 4.41156 13.1095 4.49548C13.111 4.5794 13.1293 4.66216 13.1635 4.73882C13.1976 4.81549 13.2469 4.88449 13.3083 4.94171L15.8083 7.44171C15.9255 7.55875 16.0843 7.62449 16.25 7.62449C16.4156 7.62449 16.5744 7.55875 16.6916 7.44171L19.1916 4.94171C19.302 4.82323 19.3621 4.66652 19.3593 4.50461C19.3564 4.34269 19.2908 4.1882 19.1763 4.07369C19.0618 3.95918 18.9073 3.89359 18.7454 3.89073C18.5835 3.88787 18.4268 3.94798 18.3083 4.05838L16.8483 5.51754C16.8291 4.97587 16.7983 4.43754 16.7583 3.90171C16.6882 2.95426 16.2801 2.06351 15.6083 1.39173C14.9365 0.71995 14.0458 0.311829 13.0983 0.241709C11.0357 0.0860971 8.96426 0.0860971 6.90163 0.241709C5.95418 0.311829 5.06344 0.71995 4.39166 1.39173C3.71987 2.06351 3.31175 2.95426 3.24163 3.90171C3.22747 4.08837 3.21413 4.27421 3.2033 4.46171C3.19695 4.54435 3.2071 4.62742 3.23316 4.7061C3.25922 4.78478 3.30066 4.85749 3.35509 4.91999C3.40951 4.9825 3.47583 5.03356 3.55017 5.0702C3.62451 5.10684 3.7054 5.12833 3.78812 5.13341C3.87085 5.1385 3.95376 5.12708 4.03203 5.09982C4.1103 5.07256 4.18236 5.03 4.24403 4.97463C4.3057 4.91925 4.35574 4.85216 4.39124 4.77727C4.42673 4.70237 4.44698 4.62117 4.4508 4.53837C4.46163 4.35754 4.47413 4.17671 4.48747 3.99588C4.53494 3.34634 4.81445 2.73555 5.27496 2.27504C5.73548 1.81453 6.34627 1.53501 6.9958 1.48754C7.98747 1.41254 8.98913 1.37504 9.99996 1.37504ZM4.19163 6.55838C4.07444 6.44133 3.91559 6.37559 3.74997 6.37559C3.58434 6.37559 3.42549 6.44133 3.3083 6.55838L0.808299 9.05838C0.746893 9.11559 0.697641 9.18459 0.663481 9.26126C0.629321 9.33793 0.610953 9.42069 0.609472 9.50461C0.607992 9.58853 0.623429 9.67188 0.654863 9.74971C0.686297 9.82753 0.733084 9.89822 0.792433 9.95757C0.851782 10.0169 0.922477 10.0637 1.0003 10.0951C1.07812 10.1266 1.16148 10.142 1.2454 10.1405C1.32932 10.1391 1.41208 10.1207 1.48875 10.0865C1.56541 10.0524 1.63441 10.0031 1.69163 9.94171L3.15163 8.48254C3.1708 9.02421 3.20163 9.56254 3.24163 10.0984C3.31175 11.0458 3.71987 11.9366 4.39166 12.6084C5.06344 13.2801 5.95418 13.6883 6.90163 13.7584C8.96426 13.914 11.0357 13.914 13.0983 13.7584C14.0458 13.6883 14.9365 13.2801 15.6083 12.6084C16.2801 11.9366 16.6882 11.0458 16.7583 10.0984C16.7725 9.91254 16.785 9.72587 16.7966 9.53837C16.8042 9.37444 16.747 9.21412 16.6373 9.09202C16.5277 8.96992 16.3744 8.89583 16.2106 8.88577C16.0468 8.8757 15.8857 8.93046 15.7619 9.03822C15.6381 9.14598 15.5617 9.29809 15.5491 9.46171C15.5383 9.64254 15.5258 9.82337 15.5125 10.0042C15.465 10.6537 15.1855 11.2645 14.725 11.725C14.2645 12.1856 13.6537 12.4651 13.0041 12.5125C11.0042 12.6633 8.99574 12.6633 6.9958 12.5125C6.34627 12.4651 5.73548 12.1856 5.27496 11.725C4.81445 11.2645 4.53494 10.6537 4.48747 10.0042C4.45068 9.51615 4.42289 9.02746 4.40413 8.53837L5.8083 9.94171C5.92678 10.0521 6.08348 10.1122 6.2454 10.1094C6.40732 10.1065 6.56181 10.0409 6.67632 9.92639C6.79083 9.81188 6.85642 9.65739 6.85928 9.49548C6.86213 9.33356 6.80203 9.17685 6.69163 9.05838L4.19163 6.55838Z" fill="white"/>
</svg>
