<svg width="16" height="14" viewBox="0 0 16 14" fill="none" xmlns="http://www.w3.org/2000/svg">
<path d="M10.6667 2.66667C10.6667 3.37391 10.3857 4.05219 9.88562 4.55229C9.38552 5.05238 8.70724 5.33333 8 5.33333C7.29276 5.33333 6.61448 5.05238 6.11438 4.55229C5.61429 4.05219 5.33333 3.37391 5.33333 2.66667C5.33333 1.95942 5.61429 1.28115 6.11438 0.781049C6.61448 0.280952 7.29276 0 8 0C8.70724 0 9.38552 0.280952 9.88562 0.781049C10.3857 1.28115 10.6667 1.95942 10.6667 2.66667ZM15.1111 4.44444C15.1111 4.91594 14.9238 5.36813 14.5904 5.70152C14.257 6.03492 13.8048 6.22222 13.3333 6.22222C12.8618 6.22222 12.4097 6.03492 12.0763 5.70152C11.7429 5.36813 11.5556 4.91594 11.5556 4.44444C11.5556 3.97295 11.7429 3.52076 12.0763 3.18737C12.4097 2.85397 12.8618 2.66667 13.3333 2.66667C13.8048 2.66667 14.257 2.85397 14.5904 3.18737C14.9238 3.52076 15.1111 3.97295 15.1111 4.44444ZM11.5556 10.6667C11.5556 9.72368 11.181 8.81931 10.5142 8.15251C9.84736 7.48571 8.94299 7.11111 8 7.11111C7.05701 7.11111 6.15264 7.48571 5.48584 8.15251C4.81905 8.81931 4.44445 9.72368 4.44445 10.6667V13.3333H11.5556V10.6667ZM4.44445 4.44444C4.44445 4.91594 4.25714 5.36813 3.92375 5.70152C3.59035 6.03492 3.13816 6.22222 2.66667 6.22222C2.19517 6.22222 1.74299 6.03492 1.40959 5.70152C1.07619 5.36813 0.888889 4.91594 0.888889 4.44444C0.888889 3.97295 1.07619 3.52076 1.40959 3.18737C1.74299 2.85397 2.19517 2.66667 2.66667 2.66667C3.13816 2.66667 3.59035 2.85397 3.92375 3.18737C4.25714 3.52076 4.44445 3.97295 4.44445 4.44444ZM13.3333 13.3333V10.6667C13.3346 9.76292 13.1052 8.87381 12.6667 8.08356C13.0608 7.98271 13.4727 7.9732 13.871 8.05575C14.2693 8.13831 14.6435 8.31075 14.9651 8.55992C15.2866 8.80909 15.547 9.12841 15.7263 9.49352C15.9057 9.85863 15.9993 10.2599 16 10.6667V13.3333H13.3333ZM3.33333 8.08356C2.89489 8.87382 2.66542 9.76292 2.66667 10.6667V13.3333H2.36196e-07V10.6667C-0.000171083 10.2596 0.0928563 9.85788 0.271953 9.49232C0.45105 9.12676 0.711461 8.80705 1.03323 8.5577C1.355 8.30835 1.72958 8.13598 2.12828 8.05379C2.52697 7.97161 2.93918 7.98179 3.33333 8.08356Z" fill="white"/>
</svg>
