<svg width="16" height="18" viewBox="0 0 16 18" fill="none" xmlns="http://www.w3.org/2000/svg">
<path fill-rule="evenodd" clip-rule="evenodd" d="M7.2475 0.262592C7.41005 0.294981 7.55308 0.390611 7.64512 0.528447C7.73717 0.666283 7.7707 0.835038 7.73833 0.997592L6.88833 5.25009H10.6133L11.5125 0.752592C11.5261 0.669817 11.5562 0.59063 11.6011 0.519748C11.646 0.448866 11.7046 0.387741 11.7736 0.340015C11.8426 0.292289 11.9205 0.258939 12.0027 0.241952C12.0848 0.224965 12.1695 0.224689 12.2518 0.241141C12.334 0.257592 12.4122 0.290435 12.4814 0.33771C12.5507 0.384986 12.6098 0.445728 12.6551 0.516316C12.7005 0.586904 12.7311 0.665894 12.7453 0.748578C12.7594 0.831263 12.7568 0.915949 12.7375 0.997592L11.8875 5.25009H14.875C15.0408 5.25009 15.1997 5.31594 15.3169 5.43315C15.4342 5.55036 15.5 5.70933 15.5 5.87509C15.5 6.04085 15.4342 6.19982 15.3169 6.31703C15.1997 6.43424 15.0408 6.50009 14.875 6.50009H11.6375L10.6375 11.5001H13.625C13.7908 11.5001 13.9497 11.5659 14.0669 11.6832C14.1842 11.8004 14.25 11.9593 14.25 12.1251C14.25 12.2909 14.1842 12.4498 14.0669 12.567C13.9497 12.6842 13.7908 12.7501 13.625 12.7501H10.3875L9.4875 17.2476C9.47389 17.3304 9.44375 17.4096 9.39889 17.4804C9.35403 17.5513 9.29535 17.6124 9.22637 17.6602C9.15738 17.7079 9.07949 17.7412 8.99734 17.7582C8.91519 17.7752 8.83047 17.7755 8.74821 17.759C8.66595 17.7426 8.58785 17.7097 8.51855 17.6625C8.44926 17.6152 8.39019 17.5545 8.34486 17.4839C8.29954 17.4133 8.26889 17.3343 8.25474 17.2516C8.24059 17.1689 8.24323 17.0842 8.2625 17.0026L9.1125 12.7501H5.3875L4.4875 17.2476C4.45027 17.4053 4.35325 17.5424 4.21691 17.6299C4.08056 17.7175 3.91554 17.7486 3.75665 17.7169C3.59776 17.6851 3.45742 17.5928 3.36523 17.4596C3.27304 17.3263 3.23621 17.1625 3.2625 17.0026L4.1125 12.7501H1.125C0.95924 12.7501 0.800268 12.6842 0.683058 12.567C0.565848 12.4498 0.5 12.2909 0.5 12.1251C0.5 11.9593 0.565848 11.8004 0.683058 11.6832C0.800268 11.5659 0.95924 11.5001 1.125 11.5001H4.3625L5.3625 6.50009H2.375C2.20924 6.50009 2.05027 6.43424 1.93306 6.31703C1.81585 6.19982 1.75 6.04085 1.75 5.87509C1.75 5.70933 1.81585 5.55036 1.93306 5.43315C2.05027 5.31594 2.20924 5.25009 2.375 5.25009H5.6125L6.5125 0.752592C6.54508 0.590196 6.64079 0.447372 6.7786 0.355496C6.91642 0.26362 7.08506 0.230205 7.2475 0.262592ZM6.6375 6.50009L5.6375 11.5001H9.3625L10.3625 6.50009H6.6375Z" fill="white"/>
</svg>
