<svg width="14" height="13" viewBox="0 0 14 13" fill="none" xmlns="http://www.w3.org/2000/svg">
<path d="M0 0.875C0 0.642936 0.0921872 0.420376 0.256282 0.256282C0.420376 0.0921872 0.642936 0 0.875 0H2.625C2.85706 0 3.07962 0.0921872 3.24372 0.256282C3.40781 0.420376 3.5 0.642936 3.5 0.875V11.375C3.5 11.6071 3.40781 11.8296 3.24372 11.9937C3.07962 12.1578 2.85706 12.25 2.625 12.25H0.875C0.642936 12.25 0.420376 12.1578 0.256282 11.9937C0.0921872 11.8296 0 11.6071 0 11.375V0.875ZM5.25 0.875C5.25 0.642936 5.34219 0.420376 5.50628 0.256282C5.67038 0.0921872 5.89294 0 6.125 0H7.875C8.10706 0 8.32962 0.0921872 8.49372 0.256282C8.65781 0.420376 8.75 0.642936 8.75 0.875V11.375C8.75 11.6071 8.65781 11.8296 8.49372 11.9937C8.32962 12.1578 8.10706 12.25 7.875 12.25H6.125C5.89294 12.25 5.67038 12.1578 5.50628 11.9937C5.34219 11.8296 5.25 11.6071 5.25 11.375V0.875ZM11.375 0C11.1429 0 10.9204 0.0921872 10.7563 0.256282C10.5922 0.420376 10.5 0.642936 10.5 0.875V11.375C10.5 11.6071 10.5922 11.8296 10.7563 11.9937C10.9204 12.1578 11.1429 12.25 11.375 12.25H13.125C13.3571 12.25 13.5796 12.1578 13.7437 11.9937C13.9078 11.8296 14 11.6071 14 11.375V0.875C14 0.642936 13.9078 0.420376 13.7437 0.256282C13.5796 0.0921872 13.3571 0 13.125 0H11.375Z" fill="white"/>
</svg>
