<svg width="16" height="16" viewBox="0 0 16 16" fill="none" xmlns="http://www.w3.org/2000/svg">
<path fill-rule="evenodd" clip-rule="evenodd" d="M9.4899 1.17002C9.10989 -0.390006 6.88986 -0.390006 6.50985 1.17002C6.45312 1.40444 6.34184 1.62215 6.18507 1.80544C6.0283 1.98873 5.83047 2.13241 5.60768 2.2248C5.38489 2.3172 5.14344 2.35568 4.90296 2.33713C4.66249 2.31857 4.4298 2.24351 4.22382 2.11803C2.85179 1.28202 1.28177 2.85204 2.11778 4.22407C2.65779 5.11008 2.17878 6.2661 1.17077 6.5111C-0.390256 6.89011 -0.390256 9.11114 1.17077 9.48915C1.40525 9.54595 1.623 9.65734 1.80629 9.81423C1.98958 9.97111 2.13322 10.1691 2.22552 10.392C2.31783 10.6149 2.35618 10.8565 2.33746 11.097C2.31873 11.3375 2.24347 11.5702 2.11778 11.7762C1.28177 13.1482 2.85179 14.7182 4.22382 13.8822C4.42976 13.7565 4.66247 13.6813 4.90301 13.6625C5.14355 13.6438 5.38511 13.6822 5.60802 13.7745C5.83093 13.8668 6.02889 14.0104 6.18577 14.1937C6.34266 14.377 6.45404 14.5948 6.51085 14.8292C6.88986 16.3903 9.11089 16.3903 9.4889 14.8292C9.5459 14.5949 9.65739 14.3773 9.81431 14.1941C9.97123 14.0109 10.1692 13.8674 10.392 13.7751C10.6148 13.6828 10.8563 13.6445 11.0968 13.6631C11.3373 13.6817 11.5699 13.7568 11.7759 13.8822C13.148 14.7182 14.718 13.1482 13.882 11.7762C13.7565 11.5702 13.6814 11.3375 13.6628 11.097C13.6442 10.8566 13.6826 10.6151 13.7749 10.3922C13.8671 10.1694 14.0107 9.97148 14.1939 9.81456C14.377 9.65764 14.5946 9.54615 14.829 9.48915C16.39 9.11014 16.39 6.88911 14.829 6.5111C14.5945 6.4543 14.3767 6.34291 14.1935 6.18603C14.0102 6.02914 13.8665 5.83118 13.7742 5.60827C13.6819 5.38536 13.6436 5.1438 13.6623 4.90326C13.681 4.66272 13.7563 4.43001 13.882 4.22407C14.718 2.85204 13.148 1.28202 11.7759 2.11803C11.57 2.24372 11.3373 2.31898 11.0967 2.33771C10.8562 2.35643 10.6146 2.31808 10.3917 2.22577C10.1688 2.13347 9.97086 1.98983 9.81397 1.80654C9.65709 1.62325 9.5457 1.4055 9.4889 1.17102L9.4899 1.17002ZM7.99987 11.0002C8.79554 11.0002 9.55861 10.6841 10.1212 10.1215C10.6838 9.55886 10.9999 8.79579 10.9999 8.00012C10.9999 7.20446 10.6838 6.44139 10.1212 5.87877C9.55861 5.31615 8.79554 5.00008 7.99987 5.00008C7.20421 5.00008 6.44114 5.31615 5.87852 5.87877C5.3159 6.44139 4.99983 7.20446 4.99983 8.00012C4.99983 8.79579 5.3159 9.55886 5.87852 10.1215C6.44114 10.6841 7.20421 11.0002 7.99987 11.0002Z" fill="white"/>
</svg>
