<svg width="16" height="16" viewBox="0 0 16 16" fill="none" xmlns="http://www.w3.org/2000/svg">
<path d="M5.8903 3.5018L4.28464 2L3.06153 3.144L4.66893 4.64742C4.28493 5.21589 4.0627 5.88948 4.0627 6.61162L11.937 6.6118C11.937 5.80475 11.6594 5.05815 11.1887 4.45134L12.4837 3.24005L11.2606 2.09606L9.88828 3.37961C9.32764 3.09243 8.68412 2.92915 7.99983 2.92915C7.22373 2.92915 6.50007 3.13919 5.8903 3.5018Z" fill="#D63B00"/>
<path d="M3 9.85576C3 9.36941 3.0656 8.89883 3.18819 8.45287H12.8118C12.9344 8.89883 13 9.36941 13 9.85576C13 12.6968 10.7614 15 8 15C5.23858 15 3 12.6968 3 9.85576Z" fill="#D63B00"/>
</svg>
