<svg width="16" height="16" viewBox="0 0 16 16" fill="none" xmlns="http://www.w3.org/2000/svg">
<path d="M9.63098 12.9996C9.57415 12.9996 9.52088 12.9783 9.47115 12.9357C9.42853 12.8931 9.40722 12.8398 9.40722 12.7758C9.40722 12.7616 9.41077 12.7403 9.41787 12.7119C9.42498 12.6906 9.43563 12.6622 9.44984 12.6267L10.281 10.634L8.23509 5.80703C8.21378 5.7502 8.20312 5.70403 8.20312 5.66851C8.21023 5.60457 8.23509 5.55129 8.27771 5.50867C8.32034 5.45895 8.37362 5.43408 8.43755 5.43408H9.47115C9.5635 5.43408 9.63098 5.45895 9.67361 5.50867C9.71623 5.55129 9.7482 5.59747 9.76951 5.6472L11.0908 8.95045L12.4441 5.6472C12.4725 5.59037 12.508 5.54064 12.5506 5.49802C12.5933 5.45539 12.6607 5.43408 12.7531 5.43408H13.7654C13.8293 5.43408 13.8826 5.45895 13.9252 5.50867C13.9749 5.55129 13.9998 5.60102 13.9998 5.65785C13.9998 5.69337 13.9856 5.7431 13.9572 5.80703L10.9416 12.7865C10.9203 12.8433 10.8848 12.8931 10.8351 12.9357C10.7925 12.9783 10.725 12.9996 10.6326 12.9996H9.63098Z" fill="#006EEF"/>
<path d="M2.26639 10.9747C2.18825 10.9747 2.12432 10.9498 2.07459 10.9001C2.02486 10.8504 2 10.7865 2 10.7083L2 3.26639C2 3.18825 2.02486 3.12432 2.07459 3.07459C2.12432 3.02486 2.18825 3 2.26639 3H3.4172C3.48824 3 3.54862 3.02486 3.59835 3.07459C3.64808 3.12432 3.67294 3.18825 3.67294 3.26639L3.67294 6.0731C3.86474 5.84578 4.09917 5.66463 4.37621 5.52966C4.65326 5.39469 4.98714 5.3272 5.37785 5.3272C5.79697 5.3272 6.16637 5.4231 6.48604 5.6149C6.81281 5.7996 7.06855 6.0731 7.25325 6.43539C7.43794 6.79058 7.53029 7.22391 7.53029 7.73538V10.7083C7.53029 10.7865 7.50543 10.8504 7.4557 10.9001C7.40598 10.9498 7.34204 10.9747 7.2639 10.9747H6.10243C6.03139 10.9747 5.97101 10.9498 5.92129 10.9001C5.87156 10.8504 5.8467 10.7865 5.8467 10.7083V7.79932C5.8467 7.42282 5.75435 7.13156 5.56965 6.92555C5.38495 6.71244 5.12211 6.60588 4.78113 6.60588C4.44725 6.60588 4.17731 6.71244 3.9713 6.92555C3.77239 7.13156 3.67294 7.42282 3.67294 7.79932V10.7083C3.67294 10.7865 3.64808 10.8504 3.59835 10.9001C3.54862 10.9498 3.48824 10.9747 3.4172 10.9747H2.26639Z" fill="#006EEF"/>
</svg>
