<svg width="17" height="16" viewBox="0 0 17 16" fill="none" xmlns="http://www.w3.org/2000/svg">
<path d="M14.6665 4.25C14.6665 6.04467 11.9798 7.5 8.6665 7.5C5.35317 7.5 2.6665 6.04467 2.6665 4.25C2.6665 2.45533 5.35317 1 8.6665 1C11.9798 1 14.6665 2.45533 14.6665 4.25Z" fill="#414144"/>
<path d="M8.6665 8.50022C10.4565 8.50022 12.1265 8.10955 13.3852 7.42755C13.8484 7.18161 14.2742 6.87094 14.6498 6.50488C14.6605 6.58555 14.6665 6.66755 14.6665 6.75022C14.6665 8.54488 11.9798 10.0002 8.6665 10.0002C5.35317 10.0002 2.6665 8.54488 2.6665 6.75022C2.6665 6.66755 2.6725 6.58555 2.68317 6.50488C3.05878 6.87092 3.48461 7.1816 3.94784 7.42755C5.20584 8.10955 6.8765 8.50022 8.6665 8.50022Z" fill="#414144"/>
<path d="M8.6665 11.0002C10.4565 11.0002 12.1265 10.6095 13.3852 9.92755C13.8484 9.68162 14.2742 9.37094 14.6498 9.00488C14.6605 9.08555 14.6665 9.16755 14.6665 9.25022C14.6665 11.0449 11.9798 12.5002 8.6665 12.5002C5.35317 12.5002 2.6665 11.0449 2.6665 9.25022C2.6665 9.16755 2.6725 9.08555 2.68317 9.00488C3.05878 9.37093 3.48461 9.6816 3.94784 9.92755C5.20584 10.6095 6.8765 11.0002 8.6665 11.0002Z" fill="#414144"/>
<path d="M8.6665 13.5002C10.4565 13.5002 12.1265 13.1096 13.3852 12.4276C13.8484 12.1816 14.2742 11.8709 14.6498 11.5049C14.6605 11.5855 14.6665 11.6675 14.6665 11.7502C14.6665 13.5449 11.9798 15.0002 8.6665 15.0002C5.35317 15.0002 2.6665 13.5449 2.6665 11.7502C2.6665 11.6675 2.6725 11.5855 2.68317 11.5049C3.05878 11.8709 3.48461 12.1816 3.94784 12.4276C5.20584 13.1096 6.8765 13.5002 8.6665 13.5002Z" fill="#414144"/>
</svg>
