<svg width="16" height="16" viewBox="0 0 16 16" fill="none" xmlns="http://www.w3.org/2000/svg">
<path fill-rule="evenodd" clip-rule="evenodd" d="M2 3.5C2 2.67157 2.76112 2 3.7 2H12.3C13.2389 2 14 2.67157 14 3.5V12.5C14 13.1959 13.4629 13.7811 12.7345 13.9505C12.5438 13.9949 12.4 13.8211 12.4 13.647C12.4 13.0623 11.8628 12.5882 11.2 12.5882C10.5373 12.5882 10 13.0623 10 13.647C10 13.8226 9.85955 14 9.66054 14H9.53947C9.34046 14 9.2 13.8226 9.2 13.647C9.2 13.0623 8.66274 12.5882 8 12.5882C7.33725 12.5882 6.8 13.0623 6.8 13.647C6.8 13.8226 6.65953 14 6.46052 14H6.33948C6.14048 14 6.00001 13.8226 6.00001 13.647C6.00001 13.0623 5.46275 12.5882 4.80001 12.5882C4.13727 12.5882 3.60001 13.0623 3.60001 13.647C3.60001 13.8211 3.45619 13.9949 3.26548 13.9506C2.53709 13.7811 2 13.1959 2 12.5V3.5ZM4.40001 4.11765C3.95818 4.11765 3.60001 4.43368 3.60001 4.82353C3.60001 5.21338 3.95818 5.52941 4.40001 5.52941H11.6C12.0418 5.52941 12.4 5.21338 12.4 4.82353C12.4 4.43368 12.0418 4.11765 11.6 4.11765H4.40001ZM4.40002 6.94117C3.95819 6.94117 3.60002 7.2572 3.60002 7.64705C3.60002 8.0369 3.95819 8.35293 4.40002 8.35293H11.6C12.0418 8.35293 12.4 8.0369 12.4 7.64705C12.4 7.2572 12.0418 6.94117 11.6 6.94117H4.40002ZM3.60002 10.4706C3.60002 10.0808 3.95819 9.76472 4.40002 9.76472H8.40002C8.84185 9.76472 9.20002 10.0808 9.20002 10.4706C9.20002 10.8604 8.84185 11.1765 8.40002 11.1765H4.40002C3.95819 11.1765 3.60002 10.8604 3.60002 10.4706Z" fill="#006EEF"/>
</svg>
