<svg width="20" height="20" viewBox="0 0 20 20" fill="none" xmlns="http://www.w3.org/2000/svg">
<path fill-rule="evenodd" clip-rule="evenodd" d="M19.5999 9.9999C19.5999 12.546 18.5885 14.9878 16.7881 16.7881C14.9878 18.5885 12.546 19.5999 9.9999 19.5999C7.45382 19.5999 5.01203 18.5885 3.21168 16.7881C1.41133 14.9878 0.399902 12.546 0.399902 9.9999C0.399902 7.45382 1.41133 5.01203 3.21168 3.21168C5.01203 1.41133 7.45382 0.399902 9.9999 0.399902C12.546 0.399902 14.9878 1.41133 16.7881 3.21168C18.5885 5.01203 19.5999 7.45382 19.5999 9.9999ZM9.9999 6.3999C9.78906 6.3997 9.58189 6.45505 9.39924 6.56038C9.21659 6.66571 9.06492 6.81731 8.9595 6.9999C8.88338 7.14135 8.77964 7.26608 8.65442 7.36669C8.5292 7.46731 8.38505 7.54175 8.23052 7.58562C8.076 7.62949 7.91424 7.64189 7.75483 7.62209C7.59542 7.60228 7.44161 7.55067 7.30252 7.47032C7.16343 7.38996 7.04189 7.2825 6.9451 7.1543C6.84831 7.02611 6.77825 6.87978 6.73906 6.724C6.69987 6.56822 6.69235 6.40616 6.71696 6.24743C6.74157 6.08869 6.79779 5.93651 6.8823 5.7999C7.27856 5.11364 7.89019 4.5773 8.62233 4.27406C9.35447 3.97082 10.1662 3.91763 10.9317 4.12273C11.6971 4.32784 12.3735 4.77978 12.8559 5.40846C13.3384 6.03715 13.5999 6.80745 13.5999 7.5999C13.6001 8.34464 13.3694 9.07113 12.9396 9.67933C12.5098 10.2875 11.902 10.7475 11.1999 10.9959V11.1999C11.1999 11.5182 11.0735 11.8234 10.8484 12.0484C10.6234 12.2735 10.3182 12.3999 9.9999 12.3999C9.68164 12.3999 9.37642 12.2735 9.15137 12.0484C8.92633 11.8234 8.7999 11.5182 8.7999 11.1999V9.9999C8.7999 9.68164 8.92633 9.37642 9.15137 9.15137C9.37642 8.92633 9.68164 8.7999 9.9999 8.7999C10.3182 8.7999 10.6234 8.67347 10.8484 8.44843C11.0735 8.22339 11.1999 7.91816 11.1999 7.5999C11.1999 7.28164 11.0735 6.97642 10.8484 6.75137C10.6234 6.52633 10.3182 6.3999 9.9999 6.3999ZM9.9999 15.9999C10.3182 15.9999 10.6234 15.8735 10.8484 15.6484C11.0735 15.4234 11.1999 15.1182 11.1999 14.7999C11.1999 14.4816 11.0735 14.1764 10.8484 13.9514C10.6234 13.7263 10.3182 13.5999 9.9999 13.5999C9.68164 13.5999 9.37642 13.7263 9.15137 13.9514C8.92633 14.1764 8.7999 14.4816 8.7999 14.7999C8.7999 15.1182 8.92633 15.4234 9.15137 15.6484C9.37642 15.8735 9.68164 15.9999 9.9999 15.9999Z" fill="#707173"/>
</svg>
