<svg width="24" height="24" viewBox="0 0 24 24" fill="none" xmlns="http://www.w3.org/2000/svg">
<path fill-rule="evenodd" clip-rule="evenodd" d="M19.5 21.7496V4.75657C19.5 3.64857 18.693 2.69957 17.593 2.57157C13.8768 2.14021 10.1232 2.14021 6.407 2.57157C5.306 2.69957 4.5 3.64857 4.5 4.75657V21.7496L8.25 20.2496L12 21.7496L15.75 20.2496L19.5 21.7496ZM8 10.25C7.58579 10.25 7.25 10.5858 7.25 11C7.25 11.4142 7.58579 11.75 8 11.75H16C16.4142 11.75 16.75 11.4142 16.75 11C16.75 10.5858 16.4142 10.25 16 10.25H8ZM8 13.25C7.58579 13.25 7.25 13.5858 7.25 14C7.25 14.4142 7.58579 14.75 8 14.75H12C12.4142 14.75 12.75 14.4142 12.75 14C12.75 13.5858 12.4142 13.25 12 13.25H8Z" fill="#969696"/>
<path d="M8 8H16" stroke="#969696" stroke-width="1.5" stroke-linecap="round" stroke-linejoin="round"/>
</svg>
