<svg width="17" height="20" viewBox="0 0 17 20" fill="none" xmlns="http://www.w3.org/2000/svg">
<path d="M8.39974 0.399902C6.49019 0.399902 4.65884 1.15847 3.30858 2.50873C1.95831 3.859 1.19974 5.69034 1.19974 7.5999V11.9031L0.351344 12.7515C0.183573 12.9193 0.0693252 13.1331 0.0230442 13.3659C-0.0232369 13.5986 0.000526741 13.8398 0.0913308 14.0591C0.182135 14.2783 0.335902 14.4657 0.533194 14.5976C0.730486 14.7294 0.962444 14.7999 1.19974 14.7999H15.5997C15.837 14.7999 16.069 14.7294 16.2663 14.5976C16.4636 14.4657 16.6174 14.2783 16.7082 14.0591C16.799 13.8398 16.8227 13.5986 16.7764 13.3659C16.7302 13.1331 16.6159 12.9193 16.4481 12.7515L15.5997 11.9031V7.5999C15.5997 5.69034 14.8412 3.859 13.4909 2.50873C12.1407 1.15847 10.3093 0.399902 8.39974 0.399902ZM8.39974 19.5999C7.44496 19.5999 6.52929 19.2206 5.85416 18.5455C5.17903 17.8704 4.79974 16.9547 4.79974 15.9999H11.9997C11.9997 16.9547 11.6205 17.8704 10.9453 18.5455C10.2702 19.2206 9.35452 19.5999 8.39974 19.5999Z" fill="#707173"/>
</svg>
