<svg width="24" height="24" viewBox="0 0 24 24" fill="none" xmlns="http://www.w3.org/2000/svg">
<path fill-rule="evenodd" clip-rule="evenodd" d="M5.55 3C4.14167 3 3 4.00736 3 5.25V18.75C3 19.7939 3.80564 20.6717 4.89822 20.9258C5.18429 20.9924 5.40002 20.7316 5.40002 20.4706C5.40002 19.5934 6.2059 18.8823 7.20002 18.8823C8.19413 18.8823 9.00002 19.5934 9.00002 20.4706C9.00002 20.734 9.21071 21 9.50922 21H9.69079C9.9893 21 10.2 20.734 10.2 20.4706C10.2 19.5934 11.0059 18.8823 12 18.8823C12.9941 18.8823 13.8 19.5934 13.8 20.4706C13.8 20.734 14.0107 21 14.3092 21H14.4908C14.7893 21 15 20.734 15 20.4706C15 19.5934 15.8059 18.8823 16.8 18.8823C17.7941 18.8823 18.6 19.5934 18.6 20.4706C18.6 20.7316 18.8158 20.9924 19.1018 20.9258C20.1944 20.6717 21 19.7939 21 18.75V5.25C21 4.00736 19.8583 3 18.45 3H5.55ZM10.5001 17.1213L19.0608 8.56059L16.9395 6.43927L10.5001 12.8786L7.06077 9.43927L4.93945 11.5606L10.5001 17.1213Z" fill="#56972E"/>
</svg>
