<svg width="75" height="40" viewBox="0 0 75 40" fill="none" xmlns="http://www.w3.org/2000/svg">
<path d="M2.816 30C2.58133 30 2.38933 29.9253 2.24 29.776C2.09067 29.6267 2.016 29.4347 2.016 29.2V8.08C2.016 7.84533 2.09067 7.65333 2.24 7.504C2.38933 7.35467 2.58133 7.28 2.816 7.28H6.272C6.48533 7.28 6.66667 7.35467 6.816 7.504C6.96533 7.65333 7.04 7.84533 7.04 8.08V15.28C7.616 14.5973 8.32 14.0533 9.152 13.648C9.984 13.2427 10.9867 13.04 12.16 13.04C13.4187 13.04 14.528 13.328 15.488 13.904C16.4693 14.4587 17.2373 15.28 17.792 16.368C18.3467 17.4347 18.624 18.736 18.624 20.272V29.2C18.624 29.4347 18.5493 29.6267 18.4 29.776C18.2507 29.9253 18.0587 30 17.824 30H14.336C14.1227 30 13.9413 29.9253 13.792 29.776C13.6427 29.6267 13.568 29.4347 13.568 29.2V20.464C13.568 19.3333 13.2907 18.4587 12.736 17.84C12.1813 17.2 11.392 16.88 10.368 16.88C9.36533 16.88 8.55467 17.2 7.936 17.84C7.33867 18.4587 7.04 19.3333 7.04 20.464V29.2C7.04 29.4347 6.96533 29.6267 6.816 29.776C6.66667 29.9253 6.48533 30 6.272 30H2.816ZM24.931 36.08C24.7603 36.08 24.6003 36.016 24.451 35.888C24.323 35.76 24.259 35.6 24.259 35.408C24.259 35.3653 24.2697 35.3013 24.291 35.216C24.3123 35.152 24.3443 35.0667 24.387 34.96L26.883 28.976L20.739 14.48C20.675 14.3093 20.643 14.1707 20.643 14.064C20.6643 13.872 20.739 13.712 20.867 13.584C20.995 13.4347 21.155 13.36 21.347 13.36H24.451C24.7283 13.36 24.931 13.4347 25.059 13.584C25.187 13.712 25.283 13.8507 25.347 14L29.315 23.92L33.379 14C33.4643 13.8293 33.571 13.68 33.699 13.552C33.827 13.424 34.0297 13.36 34.307 13.36H37.347C37.539 13.36 37.699 13.4347 37.827 13.584C37.9763 13.712 38.051 13.8613 38.051 14.032C38.051 14.1387 38.0083 14.288 37.923 14.48L28.867 35.44C28.803 35.6107 28.6963 35.76 28.547 35.888C28.419 36.016 28.2163 36.08 27.939 36.08H24.931ZM43.2338 30C42.9991 30 42.8071 29.9253 42.6578 29.776C42.5084 29.6267 42.4338 29.4347 42.4338 29.2V17.136H39.9378C39.7031 17.136 39.5111 17.0613 39.3618 16.912C39.2124 16.7627 39.1378 16.5707 39.1378 16.336V14.16C39.1378 13.9253 39.2124 13.7333 39.3618 13.584C39.5111 13.4347 39.7031 13.36 39.9378 13.36H42.4338V12.208C42.4338 10.8427 42.6898 9.72267 43.2018 8.848C43.7138 7.97333 44.4604 7.33333 45.4418 6.928C46.4231 6.52267 47.6284 6.32 49.0578 6.32H51.3938C51.6284 6.32 51.8204 6.39467 51.9698 6.544C52.1191 6.69333 52.1938 6.88533 52.1938 7.12V9.296C52.1938 9.53067 52.1191 9.72267 51.9698 9.872C51.8204 10.0213 51.6284 10.096 51.3938 10.096H49.2498C48.4604 10.096 47.9058 10.288 47.5858 10.672C47.2871 11.056 47.1378 11.6213 47.1378 12.368V13.36H51.0738C51.3084 13.36 51.5004 13.4347 51.6498 13.584C51.7991 13.7333 51.8738 13.9253 51.8738 14.16V16.336C51.8738 16.5707 51.7991 16.7627 51.6498 16.912C51.5004 17.0613 51.3084 17.136 51.0738 17.136H47.1378V29.2C47.1378 29.4347 47.0631 29.6267 46.9138 29.776C46.7644 29.9253 46.5831 30 46.3698 30H43.2338ZM57.3373 36.08C57.1666 36.08 57.0066 36.016 56.8573 35.888C56.7293 35.76 56.6653 35.6 56.6653 35.408C56.6653 35.3653 56.6759 35.3013 56.6973 35.216C56.7186 35.152 56.7506 35.0667 56.7933 34.96L59.2893 28.976L53.1453 14.48C53.0813 14.3093 53.0493 14.1707 53.0493 14.064C53.0706 13.872 53.1453 13.712 53.2733 13.584C53.4013 13.4347 53.5613 13.36 53.7533 13.36H56.8573C57.1346 13.36 57.3373 13.4347 57.4653 13.584C57.5933 13.712 57.6893 13.8507 57.7533 14L61.7213 23.92L65.7853 14C65.8706 13.8293 65.9773 13.68 66.1053 13.552C66.2333 13.424 66.4359 13.36 66.7133 13.36H69.7533C69.9453 13.36 70.1053 13.4347 70.2333 13.584C70.3826 13.712 70.4573 13.8613 70.4573 14.032C70.4573 14.1387 70.4146 14.288 70.3293 14.48L61.2733 35.44C61.2093 35.6107 61.1026 35.76 60.9533 35.888C60.8253 36.016 60.6226 36.08 60.3453 36.08H57.3373Z" fill="#006EEF"/>
</svg>
